<svg height='100%' width='10em' fill="#ffffff" xmlns="http://www.w3.org/2000/svg" xmlns:xlink="http://www.w3.org/1999/xlink" version="1.1" x="0px" y="0px" viewBox="0 0 480 480" style="enable-background:new 0 0 480 480;" xml:space="preserve"><g><path d="M240,80c-88.2,0-160,71.8-160,160s71.8,160,160,160s160-71.8,160-160S328.2,80,240,80z M240,380c-77.2,0-140-62.8-140-140   s62.8-140,140-140s140,62.8,140,140S317.2,380,240,380z"></path><path d="M276.1,225.6L250,257.2V195c0-5.5-4.5-10-10-10s-10,4.5-10,10v62.2l-26.1-31.6c-3.5-4.3-9.8-4.9-14.1-1.3   s-4.9,9.8-1.3,14.1l43.8,53c0.2,0.2,0.4,0.4,0.6,0.6l0.1,0.1c0.4,0.4,0.8,0.8,1.3,1.1l0.3,0.2c0.5,0.3,0.9,0.6,1.4,0.8l0.3,0.1   c0.5,0.2,1.1,0.4,1.6,0.5h0.2c1.2,0.3,2.5,0.3,3.7,0h0.2c0.6-0.1,1.1-0.3,1.6-0.5l0.3-0.1c0.5-0.2,1-0.5,1.4-0.8l0.3-0.2   c0.5-0.3,0.9-0.7,1.3-1.1l0.1-0.1c0.2-0.2,0.4-0.4,0.6-0.6l43.8-53c3.5-4.3,2.9-10.6-1.3-14.1C285.9,220.8,279.6,221.4,276.1,225.6   L276.1,225.6z"></path></g></svg>